<svg width="16" height="16" viewBox="0 0 16 16" fill="none" xmlns="http://www.w3.org/2000/svg">
<path d="M13.0665 1.65926C11.5065 0.0992597 8.65312 0.412593 6.69978 2.36593C5.63312 3.43259 5.01978 4.94593 5.00645 6.00593C4.99312 7.05926 5.17978 8.59926 4.10645 9.67259L1.27979 12.4993L2.22645 13.4459L5.05312 10.6193C6.12645 9.54593 7.66645 9.73259 8.71978 9.71926C9.77312 9.70592 11.2931 9.09259 12.3598 8.02593C14.3065 6.07259 14.6265 3.21926 13.0665 1.65926ZM6.93312 7.78593C5.91312 6.76593 6.23312 4.71259 7.63978 3.30593C9.04645 1.89926 11.0931 1.57926 12.1198 2.59926C13.1398 3.61926 12.8198 5.67259 11.4131 7.07926C10.0065 8.48593 7.95978 8.80593 6.93312 7.78593Z" fill="#1A1A1A"/>
<path d="M12.0531 11.3326C12.4065 11.3326 12.7465 11.4726 12.9931 11.7259C13.5131 12.2459 13.5131 13.0926 12.9931 13.6126C12.7465 13.8593 12.4065 13.9993 12.0531 13.9993C11.6998 13.9993 11.3598 13.8593 11.1131 13.6059C10.5931 13.0859 10.5931 12.2393 11.1131 11.7193C11.3598 11.4726 11.6998 11.3326 12.0531 11.3326ZM12.0531 9.99926C11.3731 9.99926 10.6865 10.2593 10.1665 10.7793C9.12645 11.8193 9.12645 13.5059 10.1665 14.5526C10.6865 15.0726 11.3731 15.3326 12.0531 15.3326C12.7331 15.3326 13.4198 15.0726 13.9398 14.5526C14.9798 13.5126 14.9798 11.8259 13.9398 10.7793C13.4198 10.2593 12.7331 9.99926 12.0531 9.99926Z" fill="#1A1A1A"/>
</svg>
