<svg width="16" height="16" viewBox="0 0 16 16" fill="none" xmlns="http://www.w3.org/2000/svg">
<path fill-rule="evenodd" clip-rule="evenodd" d="M8 2.5C4.96243 2.5 2.5 4.96243 2.5 8C2.5 11.0376 4.96243 13.5 8 13.5C11.0376 13.5 13.5 11.0376 13.5 8C13.5 4.96243 11.0376 2.5 8 2.5ZM1.5 8C1.5 4.41015 4.41015 1.5 8 1.5C11.5899 1.5 14.5 4.41015 14.5 8C14.5 11.5899 11.5899 14.5 8 14.5C4.41015 14.5 1.5 11.5899 1.5 8Z" fill="#1A1A1A"/>
<path fill-rule="evenodd" clip-rule="evenodd" d="M7.67864 5.09041C7.8645 4.93449 8.13546 4.93449 8.32132 5.09041L10.6991 7.08509C10.8454 7.20782 10.9091 7.40315 10.8631 7.5885L10.2353 10.1204C10.18 10.3434 9.97977 10.5 9.74998 10.5H6.24998C6.02019 10.5 5.81998 10.3434 5.76468 10.1204L5.13687 7.5885C5.09091 7.40315 5.15453 7.20782 5.30083 7.08509L7.67864 5.09041ZM6.18257 7.65068L6.64114 9.50003H9.35882L9.81739 7.65068L7.99998 6.1261L6.18257 7.65068Z" fill="#1A1A1A"/>
<path fill-rule="evenodd" clip-rule="evenodd" d="M13.0016 4.00708C13.2621 4.09875 13.3989 4.38422 13.3073 4.64471L12.5017 6.93408C12.455 7.06675 12.3546 7.17362 12.2251 7.22849L10.5729 7.92849C10.3186 8.03622 10.0252 7.91743 9.91743 7.66316C9.8097 7.4089 9.9285 7.11545 10.1828 7.00772L11.6316 6.39386L12.364 4.31276C12.4556 4.05228 12.7411 3.91542 13.0016 4.00708Z" fill="#1A1A1A"/>
<path fill-rule="evenodd" clip-rule="evenodd" d="M11.6511 6.44201C11.8312 6.2327 12.1469 6.20905 12.3562 6.38917L14.2949 8.05761C14.5042 8.23773 14.5279 8.55343 14.3478 8.76274C14.1676 8.97205 13.852 8.9957 13.6426 8.81558L11.7039 7.14714C11.4946 6.96702 11.4709 6.65132 11.6511 6.44201Z" fill="#1A1A1A"/>
<path fill-rule="evenodd" clip-rule="evenodd" d="M2.99839 4.00708C3.25887 3.91542 3.54435 4.05228 3.63601 4.31276L4.36834 6.39386L5.81723 7.00772C6.07149 7.11545 6.19028 7.4089 6.08256 7.66316C5.97483 7.91743 5.68138 8.03622 5.42712 7.92849L3.77493 7.22849C3.64543 7.17362 3.54502 7.06675 3.49834 6.93408L2.69271 4.64471C2.60105 4.38422 2.7379 4.09875 2.99839 4.00708Z" fill="#1A1A1A"/>
<path fill-rule="evenodd" clip-rule="evenodd" d="M4.34899 6.44201C4.52912 6.65132 4.50546 6.96702 4.29615 7.14714L2.3574 8.81558C2.1481 8.9957 1.8324 8.97205 1.65227 8.76274C1.47215 8.55343 1.49581 8.23773 1.70511 8.05761L3.64386 6.38917C3.85317 6.20905 4.16887 6.2327 4.34899 6.44201Z" fill="#1A1A1A"/>
<path fill-rule="evenodd" clip-rule="evenodd" d="M10.4161 2.06462C10.5692 2.29443 10.507 2.60485 10.2772 2.75796L8.5 3.94203V5.47341C8.5 5.74955 8.27614 5.97341 8 5.97341C7.72386 5.97341 7.5 5.74955 7.5 5.47341V3.67435C7.5 3.50712 7.5836 3.35097 7.72277 3.25824L9.72277 1.92574C9.95258 1.77264 10.263 1.83481 10.4161 2.06462Z" fill="#1A1A1A"/>
<path fill-rule="evenodd" clip-rule="evenodd" d="M5.5839 2.06425C5.73703 1.83446 6.04745 1.77231 6.27725 1.92545L8.27725 3.25826C8.50704 3.4114 8.56918 3.72182 8.41605 3.95161C8.26291 4.1814 7.95249 4.24355 7.7227 4.09041L5.7227 2.7576C5.4929 2.60446 5.43076 2.29404 5.5839 2.06425Z" fill="#1A1A1A"/>
<path fill-rule="evenodd" clip-rule="evenodd" d="M9.49804 9.56811C9.73656 9.42897 10.0427 9.50954 10.1819 9.74806L11.0569 11.2481C11.1341 11.3804 11.1463 11.5409 11.0901 11.6834L10.2151 13.9022C10.1138 14.1591 9.82342 14.2852 9.56654 14.1839C9.30965 14.0826 9.18353 13.7922 9.28483 13.5353L10.0708 11.5423L9.31808 10.2519C9.17894 10.0134 9.25951 9.70725 9.49804 9.56811Z" fill="#1A1A1A"/>
<path fill-rule="evenodd" clip-rule="evenodd" d="M10.1875 11.5C10.1875 11.2239 10.4114 11 10.6875 11H12.8356C13.1118 11 13.3356 11.2239 13.3356 11.5C13.3356 11.7761 13.1118 12 12.8356 12H10.6875C10.4114 12 10.1875 11.7761 10.1875 11.5Z" fill="#1A1A1A"/>
<path fill-rule="evenodd" clip-rule="evenodd" d="M6.50194 9.56811C6.74046 9.70725 6.82103 10.0134 6.68189 10.2519L5.92949 11.5418L6.72632 13.55C6.82816 13.8066 6.70264 14.0973 6.44597 14.1991C6.18929 14.301 5.89866 14.1755 5.79681 13.9188L4.91025 11.6844C4.8536 11.5416 4.86572 11.3807 4.94311 11.2481L5.81811 9.74806C5.95725 9.50954 6.26341 9.42897 6.50194 9.56811Z" fill="#1A1A1A"/>
<path fill-rule="evenodd" clip-rule="evenodd" d="M2.67594 11.5C2.67594 11.2239 2.8998 11 3.17594 11H5.37501C5.65115 11 5.87501 11.2239 5.87501 11.5C5.87501 11.7761 5.65115 12 5.37501 12H3.17594C2.8998 12 2.67594 11.7761 2.67594 11.5Z" fill="#1A1A1A"/>
</svg>
