<svg width="16" height="16" viewBox="0 0 16 16" fill="none" xmlns="http://www.w3.org/2000/svg">
<path d="M10.0275 8.52707L4.36085 2.86041C4.23419 2.73374 4.06085 2.66707 3.88752 2.66707C3.71419 2.66707 3.54752 2.73374 3.42085 2.86041L1.52752 4.75374C1.26752 5.01374 1.26752 5.44041 1.52752 5.70041L7.19419 11.3671C7.32752 11.5004 7.49419 11.5604 7.66752 11.5604C7.84085 11.5604 8.00752 11.4937 8.14085 11.3671L10.0275 9.48041C10.2875 9.21374 10.2875 8.78707 10.0275 8.52707ZM7.66752 9.94707L2.94085 5.22041L3.88752 4.27374L8.61419 9.00041L7.66752 9.94707Z" fill="#1A1A1A"/>
<path d="M10.5045 10.8951L9.56166 11.8379L12.3901 14.6663L13.3329 13.7235L10.5045 10.8951Z" fill="#1A1A1A"/>
<path d="M12.3342 1.33374C11.0475 1.33374 10.0009 2.38041 10.0009 3.66707C10.0009 4.95374 11.0475 6.00041 12.3342 6.00041C13.6209 6.00041 14.6675 4.95374 14.6675 3.66707C14.6675 2.38041 13.6209 1.33374 12.3342 1.33374ZM12.3342 4.66707C11.7809 4.66707 11.3342 4.22041 11.3342 3.66707C11.3342 3.11374 11.7809 2.66707 12.3342 2.66707C12.8875 2.66707 13.3342 3.11374 13.3342 3.66707C13.3342 4.22041 12.8875 4.66707 12.3342 4.66707Z" fill="#1A1A1A"/>
</svg>
