<svg width="17" height="16" viewBox="0 0 17 16" fill="none" xmlns="http://www.w3.org/2000/svg">
<path fill-rule="evenodd" clip-rule="evenodd" d="M1.43235 10.6588L5.37409 14.6005L4.6324 15.3422C2.39302 17.2935 -1.61128 14.5836 0.690673 11.4005L1.43235 10.6588ZM2.8701 9.75809L3.81121 10.6992L9.3836 3.61478C9.38881 3.60565 9.39533 3.59783 9.40185 3.59001L9.41097 3.57958C9.46442 3.50659 9.51916 3.43881 9.57652 3.37624C10.0731 2.69973 10.081 1.99194 9.82027 1.43014C9.69513 1.16032 9.50873 0.924388 9.28584 0.740597C9.06425 0.55811 8.80616 0.429065 8.53634 0.373015C7.98757 0.258309 7.38275 0.449921 6.92523 1.116L2.8701 9.75809ZM4.06539 10.9534L5.06255 11.9505L12.1783 6.31299C12.1848 6.30777 12.1913 6.30386 12.1978 6.29995C12.8248 5.57652 12.8548 4.79704 12.5693 4.18701C12.4429 3.91588 12.2539 3.67865 12.0271 3.49225C11.8029 3.30846 11.5422 3.17811 11.2697 3.11945C10.7901 3.01778 10.27 3.14552 9.84243 3.61478C9.7955 3.67734 9.74466 3.73861 9.69122 3.80117C9.67428 3.82464 9.65733 3.8481 9.64169 3.87156C9.63126 3.8859 9.61953 3.89763 9.60649 3.90806L4.06539 10.9534ZM5.31804 12.206L6.2761 13.1641L14.9052 9.21063C15.5791 8.74789 15.7641 8.12092 15.639 7.54738C15.5778 7.26714 15.4422 6.99731 15.2545 6.76529C15.0655 6.53197 14.823 6.33775 14.5493 6.2061C13.9301 5.91021 13.1389 5.9428 12.4129 6.59975H12.4116C12.4051 6.60497 12.3999 6.61018 12.3933 6.61409H12.392L12.3894 6.61539L12.3881 6.6167L12.3855 6.618H12.3842L12.3816 6.6193L12.3803 6.62061L12.379 6.62191L12.3764 6.62322H12.3751L12.3725 6.62452H12.3712L12.3686 6.62582H12.3673L12.3647 6.62713H12.3634C12.3595 6.62843 12.3568 6.62973 12.3529 6.63104L5.31804 12.206ZM6.33736 13.5239L5.80163 14.1847L1.8234 10.2078L2.55987 9.58473L6.60718 0.955672C6.61109 0.943941 6.61631 0.932209 6.62413 0.921781C6.62934 0.912657 6.63455 0.904836 6.63977 0.898319C7.17811 0.118836 7.90545 -0.100149 8.57414 0.0393234C8.90392 0.108408 9.21806 0.264826 9.48657 0.485115C9.75379 0.7041 9.97799 0.988259 10.1266 1.31022C10.3456 1.78078 10.4081 2.33476 10.2243 2.89525C10.5776 2.73753 10.9517 2.71146 11.3101 2.78707C11.6412 2.85745 11.958 3.01517 12.2291 3.23807C12.4989 3.45836 12.7231 3.74382 12.8756 4.06709C13.1233 4.5963 13.1754 5.22849 12.9017 5.85677C13.5209 5.59216 14.1439 5.64951 14.6692 5.89978C14.9964 6.0562 15.2845 6.28822 15.5087 6.56456C15.7342 6.8422 15.8958 7.16546 15.9701 7.50437C16.12 8.18609 15.9167 8.92256 15.1632 9.46481C15.1489 9.48175 15.132 9.49609 15.1098 9.50652L15.0929 9.51434C15.0824 9.52086 15.0707 9.52607 15.059 9.52998L6.33736 13.5239Z" fill="#1A1A1A"/>
</svg>
