<svg width="34" height="23" viewBox="0 0 34 23" fill="none" xmlns="http://www.w3.org/2000/svg">
<g clip-path="url(#clip0_114_1082)">
<path d="M34 0H0V22.6667H34V0Z" fill="#FF9933"/>
<path d="M34 7.55556H0V15.1111H34V7.55556Z" fill="white"/>
<path d="M34 15.1111H0V22.6667H34V15.1111Z" fill="#128807"/>
<path d="M17 14.3555C18.6691 14.3555 20.0222 13.0024 20.0222 11.3333C20.0222 9.66417 18.6691 8.31108 17 8.31108C15.3309 8.31108 13.9778 9.66417 13.9778 11.3333C13.9778 13.0024 15.3309 14.3555 17 14.3555Z" fill="#000088"/>
<path d="M17 13.9777C18.4605 13.9777 19.6444 12.7938 19.6444 11.3333C19.6444 9.87282 18.4605 8.68886 17 8.68886C15.5395 8.68886 14.3555 9.87282 14.3555 11.3333C14.3555 12.7938 15.5395 13.9777 17 13.9777Z" fill="white"/>
<path d="M17 11.8622C17.2921 11.8622 17.5289 11.6254 17.5289 11.3333C17.5289 11.0412 17.2921 10.8044 17 10.8044C16.7079 10.8044 16.4711 11.0412 16.4711 11.3333C16.4711 11.6254 16.7079 11.8622 17 11.8622Z" fill="#000088"/>
<path d="M19.6045 11.8096C19.6769 11.8191 19.7434 11.7681 19.7529 11.6957C19.7624 11.6233 19.7115 11.5569 19.6391 11.5474C19.5667 11.5378 19.5002 11.5888 19.4907 11.6612C19.4812 11.7336 19.5321 11.8 19.6045 11.8096Z" fill="#000088"/>
<path d="M17 13.9777L17.0906 12.3911L17 11.6355L16.9093 12.3911L17 13.9777Z" fill="#000088"/>
<path d="M19.3925 12.4675C19.46 12.4954 19.5373 12.4634 19.5653 12.3959C19.5932 12.3284 19.5612 12.2511 19.4937 12.2231C19.4262 12.1952 19.3489 12.2272 19.3209 12.2947C19.293 12.3622 19.325 12.4395 19.3925 12.4675Z" fill="#000088"/>
<path d="M16.3155 13.8877L16.8137 12.3785L16.9217 11.6252L16.6386 12.3316L16.3155 13.8877Z" fill="#000088"/>
<path d="M19.0175 13.048C19.0754 13.0925 19.1584 13.0815 19.2029 13.0236C19.2473 12.9657 19.2364 12.8827 19.1784 12.8382C19.1205 12.7938 19.0375 12.8047 18.9931 12.8626C18.9486 12.9206 18.9595 13.0036 19.0175 13.048Z" fill="#000088"/>
<path d="M15.6778 13.6234L16.5496 12.2947L16.8489 11.595L16.3926 12.204L15.6778 13.6234Z" fill="#000088"/>
<path d="M18.5049 13.5117C18.5494 13.5697 18.6324 13.5806 18.6903 13.5361C18.7482 13.4917 18.7592 13.4087 18.7147 13.3508C18.6703 13.2928 18.5872 13.2819 18.5293 13.3264C18.4714 13.3708 18.4605 13.4538 18.5049 13.5117Z" fill="#000088"/>
<path d="M15.1301 13.2032L16.3161 12.1453L16.7863 11.547L16.1879 12.0171L15.1301 13.2032Z" fill="#000088"/>
<path d="M17.8898 13.8271C17.9178 13.8946 17.9951 13.9266 18.0626 13.8987C18.13 13.8707 18.1621 13.7934 18.1341 13.7259C18.1062 13.6585 18.0288 13.6264 17.9614 13.6544C17.8939 13.6823 17.8619 13.7597 17.8898 13.8271Z" fill="#000088"/>
<path d="M14.7098 12.6556L16.1293 11.9408L16.7383 11.4845L16.0386 11.7837L14.7098 12.6556Z" fill="#000088"/>
<path d="M17.2141 13.9725C17.2236 14.0449 17.29 14.0958 17.3624 14.0863C17.4348 14.0768 17.4858 14.0103 17.4763 13.9379C17.4667 13.8655 17.4003 13.8146 17.3279 13.8241C17.2555 13.8336 17.2045 13.9001 17.2141 13.9725Z" fill="#000088"/>
<path d="M14.4457 12.0178L16.0017 11.6947L16.7081 11.4116L15.9548 11.5196L14.4457 12.0178Z" fill="#000088"/>
<path d="M16.5237 13.9379C16.5142 14.0103 16.5652 14.0768 16.6376 14.0863C16.71 14.0958 16.7764 14.0448 16.7859 13.9724C16.7954 13.9001 16.7445 13.8336 16.6721 13.8241C16.5997 13.8146 16.5333 13.8655 16.5237 13.9379Z" fill="#000088"/>
<path d="M14.3555 11.3333L15.9422 11.424L16.6978 11.3334L15.9422 11.2427L14.3555 11.3333Z" fill="#000088"/>
<path d="M15.8658 13.7259C15.8379 13.7934 15.8699 13.8707 15.9374 13.8987C16.0048 13.9266 16.0822 13.8946 16.1101 13.8271C16.1381 13.7597 16.106 13.6823 16.0386 13.6544C15.9711 13.6264 15.8938 13.6585 15.8658 13.7259Z" fill="#000088"/>
<path d="M14.4456 10.6489L15.9548 11.1472L16.708 11.2552L16.0017 10.972L14.4456 10.6489Z" fill="#000088"/>
<path d="M15.2853 13.3508C15.2408 13.4087 15.2517 13.4917 15.3097 13.5362C15.3676 13.5806 15.4506 13.5697 15.4951 13.5118C15.5395 13.4538 15.5286 13.3708 15.4706 13.3264C15.4127 13.2819 15.3297 13.2929 15.2853 13.3508Z" fill="#000088"/>
<path d="M14.7098 10.0111L16.0386 10.8829L16.7383 11.1822L16.1293 10.7259L14.7098 10.0111Z" fill="#000088"/>
<path d="M14.8215 12.8382C14.7636 12.8827 14.7527 12.9657 14.7971 13.0236C14.8416 13.0816 14.9246 13.0925 14.9825 13.048C15.0404 13.0036 15.0514 12.9206 15.0069 12.8627C14.9625 12.8047 14.8795 12.7938 14.8215 12.8382Z" fill="#000088"/>
<path d="M15.1301 9.4634L16.1879 10.6495L16.7863 11.1196L16.3161 10.5212L15.1301 9.4634Z" fill="#000088"/>
<path d="M14.5063 12.2231C14.4388 12.251 14.4068 12.3283 14.4347 12.3958C14.4627 12.4633 14.54 12.4953 14.6075 12.4674C14.6749 12.4394 14.707 12.3621 14.679 12.2946C14.6511 12.2271 14.5737 12.1951 14.5063 12.2231Z" fill="#000088"/>
<path d="M15.6778 9.04307L16.3926 10.4625L16.8489 11.0715L16.5496 10.3718L15.6778 9.04307Z" fill="#000088"/>
<path d="M14.3609 11.5473C14.2885 11.5568 14.2376 11.6233 14.2471 11.6957C14.2566 11.7681 14.323 11.819 14.3954 11.8095C14.4678 11.8 14.5188 11.7335 14.5093 11.6611C14.4997 11.5887 14.4333 11.5378 14.3609 11.5473Z" fill="#000088"/>
<path d="M16.3156 8.77889L16.6387 10.335L16.9218 11.0413L16.8138 10.288L16.3156 8.77889Z" fill="#000088"/>
<path d="M14.3954 10.8571C14.323 10.8475 14.2566 10.8985 14.2471 10.9709C14.2376 11.0433 14.2885 11.1097 14.3609 11.1192C14.4333 11.1288 14.4997 11.0778 14.5093 11.0054C14.5188 10.933 14.4678 10.8666 14.3954 10.8571Z" fill="#000088"/>
<path d="M17 8.68886L16.9093 10.2755L17 11.0311L17.0907 10.2755L17 8.68886Z" fill="#000088"/>
<path d="M14.6075 10.1992C14.54 10.1712 14.4627 10.2033 14.4347 10.2707C14.4068 10.3382 14.4388 10.4155 14.5063 10.4435C14.5738 10.4714 14.6511 10.4394 14.679 10.3719C14.707 10.3045 14.6749 10.2271 14.6075 10.1992Z" fill="#000088"/>
<path d="M17.6845 8.77897L17.1862 10.2881L17.0783 11.0414L17.3614 10.335L17.6845 8.77897Z" fill="#000088"/>
<path d="M14.9825 9.61861C14.9246 9.57416 14.8416 9.58509 14.7971 9.64302C14.7527 9.70096 14.7636 9.78396 14.8215 9.82841C14.8795 9.87287 14.9625 9.86194 15.0069 9.80401C15.0514 9.74607 15.0405 9.66307 14.9825 9.61861Z" fill="#000088"/>
<path d="M18.3222 9.04319L17.4504 10.372L17.1511 11.0716L17.6074 10.4626L18.3222 9.04319Z" fill="#000088"/>
<path d="M15.4951 9.15488C15.4506 9.09695 15.3676 9.08602 15.3097 9.13047C15.2517 9.17493 15.2408 9.25793 15.2853 9.31586C15.3297 9.3738 15.4127 9.38473 15.4707 9.34027C15.5286 9.29582 15.5395 9.21282 15.4951 9.15488Z" fill="#000088"/>
<path d="M18.8699 9.46345L17.6839 10.5213L17.2137 11.1197L17.8121 10.6495L18.8699 9.46345Z" fill="#000088"/>
<path d="M16.1102 8.83948C16.0822 8.77202 16.0049 8.73998 15.9374 8.76792C15.8699 8.79587 15.8379 8.87322 15.8658 8.94068C15.8938 9.00815 15.9711 9.04019 16.0386 9.01224C16.1061 8.98429 16.1381 8.90695 16.1102 8.83948Z" fill="#000088"/>
<path d="M19.2901 10.011L17.8707 10.7258L17.2617 11.1821L17.9614 10.8829L19.2901 10.011Z" fill="#000088"/>
<path d="M16.7859 8.69414C16.7764 8.62174 16.71 8.57078 16.6376 8.58031C16.5652 8.58984 16.5142 8.65626 16.5237 8.72866C16.5333 8.80106 16.5997 8.85202 16.6721 8.84249C16.7445 8.83296 16.7954 8.76654 16.7859 8.69414Z" fill="#000088"/>
<path d="M19.5543 10.6488L17.9983 10.9719L17.2919 11.255L18.0452 11.147L19.5543 10.6488Z" fill="#000088"/>
<path d="M17.4762 8.72867C17.4858 8.65627 17.4348 8.58985 17.3624 8.58032C17.29 8.57079 17.2236 8.62175 17.214 8.69415C17.2045 8.76655 17.2555 8.83297 17.3279 8.8425C17.4003 8.85203 17.4667 8.80107 17.4762 8.72867Z" fill="#000088"/>
<path d="M19.6444 11.3333L18.0577 11.2426L17.3022 11.3332L18.0577 11.4239L19.6444 11.3333Z" fill="#000088"/>
<path d="M18.1341 8.94068C18.1621 8.87321 18.13 8.79586 18.0626 8.76792C17.9951 8.73997 17.9178 8.77201 17.8898 8.83948C17.8619 8.90694 17.8939 8.98429 17.9614 9.01223C18.0288 9.04018 18.1062 9.00814 18.1341 8.94068Z" fill="#000088"/>
<path d="M19.5543 12.0177L18.0452 11.5194L17.2919 11.4114L17.9982 11.6946L19.5543 12.0177Z" fill="#000088"/>
<path d="M18.7147 9.31583C18.7592 9.25789 18.7483 9.17489 18.6903 9.13044C18.6324 9.08598 18.5494 9.09691 18.5049 9.15484C18.4605 9.21278 18.4714 9.29578 18.5293 9.34023C18.5873 9.38469 18.6703 9.37376 18.7147 9.31583Z" fill="#000088"/>
<path d="M19.2902 12.6555L17.9614 11.7837L17.2617 11.4844L17.8707 11.9407L19.2902 12.6555Z" fill="#000088"/>
<path d="M19.1785 9.82832C19.2364 9.78386 19.2473 9.70086 19.2029 9.64293C19.1584 9.58499 19.0754 9.57406 19.0175 9.61852C18.9595 9.66297 18.9486 9.74598 18.9931 9.80391C19.0375 9.86184 19.1205 9.87277 19.1785 9.82832Z" fill="#000088"/>
<path d="M18.8699 13.2032L17.8121 12.0171L17.2137 11.547L17.6838 12.1453L18.8699 13.2032Z" fill="#000088"/>
<path d="M19.4937 10.4435C19.5612 10.4156 19.5932 10.3382 19.5653 10.2708C19.5373 10.2033 19.46 10.1713 19.3925 10.1992C19.3251 10.2271 19.293 10.3045 19.321 10.372C19.3489 10.4394 19.4263 10.4715 19.4937 10.4435Z" fill="#000088"/>
<path d="M18.3222 13.6235L17.6074 12.2041L17.1511 11.5951L17.4503 12.2947L18.3222 13.6235Z" fill="#000088"/>
<path d="M19.6391 11.1193C19.7115 11.1097 19.7624 11.0433 19.7529 10.9709C19.7434 10.8985 19.6769 10.8475 19.6045 10.8571C19.5321 10.8666 19.4812 10.933 19.4907 11.0054C19.5002 11.0778 19.5667 11.1288 19.6391 11.1193Z" fill="#000088"/>
<path d="M17.6844 13.8877L17.3613 12.3316L17.0782 11.6253L17.1862 12.3785L17.6844 13.8877Z" fill="#000088"/>
</g>
<defs>
<clipPath id="clip0_114_1082">
<path d="M0 3.77777C0 1.69136 1.69137 0 3.77778 0H30.2222C32.3086 0 34 1.69137 34 3.77778V18.8889C34 20.9753 32.3086 22.6667 30.2222 22.6667H3.77778C1.69137 22.6667 0 20.9753 0 18.8889V3.77777Z" fill="white"/>
</clipPath>
</defs>
</svg>
