<svg width="16" height="16" viewBox="0 0 16 16" fill="none" xmlns="http://www.w3.org/2000/svg">
<path d="M8.00016 1.33334C5.42016 1.33334 3.3335 3.42001 3.3335 6.00001C3.3335 9.50001 8.00016 14.6667 8.00016 14.6667C8.00016 14.6667 12.6668 9.50001 12.6668 6.00001C12.6668 3.42001 10.5802 1.33334 8.00016 1.33334ZM4.66683 6.00001C4.66683 4.16001 6.16016 2.66668 8.00016 2.66668C9.84016 2.66668 11.3335 4.16001 11.3335 6.00001C11.3335 7.92001 9.4135 10.7933 8.00016 12.5867C6.6135 10.8067 4.66683 7.90001 4.66683 6.00001Z" fill="#4D4D4D"/>
<path d="M8.00016 7.66668C8.92064 7.66668 9.66683 6.92048 9.66683 6.00001C9.66683 5.07954 8.92064 4.33334 8.00016 4.33334C7.07969 4.33334 6.3335 5.07954 6.3335 6.00001C6.3335 6.92048 7.07969 7.66668 8.00016 7.66668Z" fill="#4D4D4D"/>
</svg>
